FILE "cbr-128-lame.mp3" MP3
  TRACK 01 AUDIO
    TITLE "One"
    PERFORMER "Test"
    INDEX 01 00:00:00
  TRACK 02 AUDIO
    TITLE "Two"
    PERFORMER "Test"
    INDEX 01 00:01:45
  TRACK 03 AUDIO
    TITLE "Three"
    PERFORMER "Test"
    INDEX 01 00:02:00
  TRACK 04 AUDIO
    TITLE "Four"
    PERFORMER "John Doe"
    INDEX 01 00:03:74
